<svg id="Layer_1" data-name="Layer 1" xmlns="http://www.w3.org/2000/svg" viewBox="0 0 718.92 245.34">
  <g>
    <polygon points="174.87 245.34 243.95 245.34 206.41 2.18 137.33 2.18 152.73 101.93 92.01 101.93 107.41 2.18 38.33 2.18 0.79 245.34 69.87 245.34 82.74 161.98 162 161.98 174.87 245.34"/>
    <g>
      <path d="M320.63,2.21H332l30.89,69.25H352.67l-7.81-17.67h-37l-7.9,17.67H289.73ZM341,45,326.31,11.89,311.66,45Z"/>
      <path d="M370.6,2.21h30.81q11.35,0,17.35,5.37t6,15.05a19,19,0,0,1-2.93,10.57,15.35,15.35,0,0,1-8.08,6.3,11.55,11.55,0,0,1,6.35,3.77Q422.28,46,423,51.22a83.46,83.46,0,0,1,.89,9.59c.18,2.42.37,4.32.58,5.68a16.68,16.68,0,0,0,1.28,4.26v.71h-9.5a17.4,17.4,0,0,1-1.15-4.17c-.24-1.54-.47-3.7-.71-6.48-.24-3-.44-5.09-.62-6.4a22.87,22.87,0,0,0-1.82-7.36,6.31,6.31,0,0,0-3.82-3.16,28.25,28.25,0,0,0-8-.84H379.84V71.46H370.6Zm29.48,32.5q7.64,0,11.32-3.07t3.68-8.74q0-5.77-3.82-8.83T399.64,11h-19.8V34.71Z"/>
      <path d="M454.76,11.36h-24.5V2.21H488.5v9.15H464v60.1h-9.23Z"/>
      <path d="M498.26,2.21h9.23V71.46h-9.23Z"/>
      <path d="M532.79,70a22.73,22.73,0,0,1-10-8.43,23.69,23.69,0,0,1-3.55-13.14h10.21q.27,7.54,5.19,11.76t13.63,4.22q8.43,0,13-3.47a11.44,11.44,0,0,0,4.57-9.67,8,8,0,0,0-2.49-6.35,14,14,0,0,0-6.21-3,96.16,96.16,0,0,0-10.21-1.55A96.24,96.24,0,0,1,533.5,38a18,18,0,0,1-8.7-5.38q-3.63-4-3.63-11.71a17.23,17.23,0,0,1,3.28-10.39,21.71,21.71,0,0,1,9.28-7.1A34.59,34.59,0,0,1,547.53.79a33.78,33.78,0,0,1,14.07,2.8,22.54,22.54,0,0,1,9.63,7.9,20.3,20.3,0,0,1,3.47,11.67h-10A13.86,13.86,0,0,0,559.69,13q-4.53-3.65-12.43-3.64T535.1,12.6a11,11,0,0,0-4.26,9.23,7.19,7.19,0,0,0,2.44,5.86,14,14,0,0,0,6.08,2.84A87.15,87.15,0,0,0,549.31,32a93.67,93.67,0,0,1,13.62,2.27,18.4,18.4,0,0,1,8.92,5.37q3.74,4,3.73,11.63a19.74,19.74,0,0,1-3.24,11.18,21.5,21.5,0,0,1-9.5,7.68A40.83,40.83,0,0,1,532.79,70Z"/>
      <path d="M602.22,11.36H577.71V2.21H636v9.15h-24.5v60.1h-9.23Z"/>
      <path d="M647.49,1.33h9.86l-8.53,19.35h-6Z"/>
      <path d="M673.59,70a22.73,22.73,0,0,1-10-8.43A23.69,23.69,0,0,1,660,48.38h10.21q.27,7.54,5.19,11.76T689,64.36q8.43,0,13-3.47a11.43,11.43,0,0,0,4.58-9.67,8,8,0,0,0-2.49-6.35,14,14,0,0,0-6.21-3,96.16,96.16,0,0,0-10.21-1.55A96.24,96.24,0,0,1,674.3,38a18,18,0,0,1-8.7-5.38q-3.63-4-3.64-11.71a17.24,17.24,0,0,1,3.29-10.39,21.71,21.71,0,0,1,9.28-7.1A34.59,34.59,0,0,1,688.33.79a33.78,33.78,0,0,1,14.07,2.8,22.54,22.54,0,0,1,9.63,7.9,20.3,20.3,0,0,1,3.47,11.67h-10A13.86,13.86,0,0,0,700.49,13Q696,9.31,688.06,9.32T675.9,12.6a11,11,0,0,0-4.26,9.23,7.19,7.19,0,0,0,2.44,5.86,14,14,0,0,0,6.08,2.84,87.15,87.15,0,0,0,10,1.42,93.67,93.67,0,0,1,13.62,2.27,18.4,18.4,0,0,1,8.92,5.37q3.74,4,3.73,11.63a19.74,19.74,0,0,1-3.24,11.18,21.55,21.55,0,0,1-9.5,7.68,40.83,40.83,0,0,1-30-.13Z"/>
      <g>
        <path d="M289.73,92.79H299v28.67h40.47V92.79h9.24V162h-9.24V130.34H299V162h-9.24Z"/>
        <path d="M362.53,92.79h50.24v8.78h-41v20.6h37.91v8.52H371.76v22.55h41.46V162H362.53Z"/>
        <path d="M426,92.79h30.8q11.37,0,17.36,5.37t6,15a19,19,0,0,1-2.93,10.57,15.26,15.26,0,0,1-8.08,6.3,11.51,11.51,0,0,1,6.35,3.77q2.17,2.72,2.88,7.95a81.28,81.28,0,0,1,.89,9.59c.18,2.42.37,4.32.58,5.68a16.73,16.73,0,0,0,1.29,4.26V162h-9.5a17,17,0,0,1-1.16-4.17q-.35-2.31-.71-6.48-.35-4.44-.62-6.4a22.94,22.94,0,0,0-1.82-7.36,6.27,6.27,0,0,0-3.81-3.15,27.94,27.94,0,0,0-8-.85H435.23V162H426Zm29.47,32.49q7.63,0,11.32-3.07t3.68-8.74q0-5.77-3.81-8.83T455,101.57h-19.8v23.71Z"/>
        <path d="M507.1,158.88A31.7,31.7,0,0,1,494.62,146a39.61,39.61,0,0,1-4.44-19,37.87,37.87,0,0,1,4.44-18.55A31.74,31.74,0,0,1,507.1,95.89a36.82,36.82,0,0,1,18.42-4.52,36,36,0,0,1,18.2,4.52A31.43,31.43,0,0,1,556,108.5a38.62,38.62,0,0,1,4.35,18.55A40.39,40.39,0,0,1,556,146a31.42,31.42,0,0,1-12.25,12.87,35.68,35.68,0,0,1-18.2,4.57A36.53,36.53,0,0,1,507.1,158.88Zm31.6-7.68a22.88,22.88,0,0,0,8.83-9.85,33.38,33.38,0,0,0,3.11-14.74,29.75,29.75,0,0,0-3.11-13.89,22.21,22.21,0,0,0-8.83-9.28,26,26,0,0,0-13.18-3.29,26.65,26.65,0,0,0-13.41,3.29,22.7,22.7,0,0,0-9,9.28,29.06,29.06,0,0,0-3.2,13.89,32.59,32.59,0,0,0,3.2,14.74,23.35,23.35,0,0,0,9,9.85,25.56,25.56,0,0,0,13.41,3.46A25,25,0,0,0,538.7,151.2Z"/>
      </g>
    </g>
  </g>
</svg>
